<svg width="316" height="768" viewBox="0 0 316 768" fill="none" xmlns="http://www.w3.org/2000/svg">
<g clip-path="url(#clip0)">
<path d="M809.283 295.36C811.389 294.876 813.374 293.968 815.116 292.689C816.858 291.411 818.321 289.789 819.413 287.925C821.649 284.236 822.37 279.824 821.424 275.615C820.723 272.524 819.132 269.707 816.847 267.511C814.562 265.315 811.683 263.838 808.567 263.261C805.652 227.763 798.791 209.013 780.847 186.969C774.519 179.19 765.93 172.838 755.867 168.418C738.98 154.645 737.4 141.881 736.355 133.424C736.284 132.849 736.214 132.299 736.145 131.773C735.967 130.407 735.786 128.692 735.592 126.87C735.05 121.766 734.377 115.414 733.148 110.974C729.19 96.7089 719.104 86.8336 711.345 81.0616C702.554 74.5247 691.845 69.6443 682.698 68.0021L681.016 77.3877C687.009 78.4637 696.631 82.0012 705.654 88.7216C712.219 93.6042 720.723 101.871 723.959 113.532C724.982 117.211 725.609 123.135 726.117 127.881C726.317 129.761 726.505 131.537 726.699 133.018C726.768 133.526 726.832 134.054 726.898 134.6C727.742 141.433 729.003 151.602 737.319 162.888C730.705 161.727 723.968 161.433 717.278 162.015C693.159 164.245 677.957 168.44 661.198 177.488C657.797 179.367 654.554 181.518 651.5 183.918C650.581 183.423 649.652 182.952 648.705 182.509C641.868 179.305 634.582 177.164 627.1 176.161L627.097 176.099C626.939 176.106 626.779 176.094 626.617 176.097C624.672 175.847 622.699 175.675 620.737 175.573C614.914 174.541 609.628 171.524 605.779 167.035C601.962 162.554 599.863 156.967 599.6 150.876C602.868 150.881 606.077 150.003 608.887 148.335C611.697 146.667 614.004 144.27 615.565 141.398C617.125 138.527 617.88 135.287 617.75 132.021C617.621 128.756 616.611 125.586 614.829 122.847C613.348 120.566 611.374 118.648 609.053 117.233C606.731 115.819 604.121 114.944 601.416 114.675C598.711 114.405 595.98 114.747 593.425 115.676C590.869 116.604 588.556 118.095 586.655 120.039C584.754 121.982 583.314 124.329 582.442 126.904C581.57 129.479 581.288 132.217 581.617 134.916C581.946 137.615 582.878 140.205 584.343 142.495C585.808 144.785 587.77 146.717 590.082 148.146C589.788 157.5 592.735 166.39 598.531 173.202C599.671 174.543 600.912 175.795 602.242 176.948C587.594 179.781 572.432 186.73 556.294 197.93C540.671 208.874 525.608 220.596 511.161 233.052C508.207 230.961 504.644 229.906 501.029 230.051C497.413 230.197 493.947 231.533 491.17 233.854C488.393 236.174 486.461 239.347 485.675 242.88C484.89 246.412 485.294 250.106 486.826 253.385L485.679 254.532C476.475 259.842 456.099 267.373 448.968 268.911C439.824 270.878 428.878 271.34 422.284 271.137C410.37 270.774 395.573 264.562 385.46 255.679C374.398 245.893 364.815 234.553 357.012 222.013C358.354 221.78 359.718 221.705 361.077 221.79C374.471 222.655 383.778 208.697 377.83 196.664C376.473 193.92 375.863 190.867 376.061 187.812C376.258 184.757 377.256 181.808 378.954 179.261C386.404 168.11 378.968 153.052 365.575 152.187C362.521 151.989 359.572 150.99 357.026 149.292C354.479 147.594 352.424 145.255 351.068 142.511C345.139 130.478 328.377 129.396 320.928 140.563C319.23 143.109 316.892 145.163 314.149 146.519C311.406 147.876 308.354 148.486 305.301 148.29C291.903 147.424 282.596 161.383 288.544 173.416C289.901 176.161 290.511 179.214 290.314 182.27C290.117 185.325 289.118 188.275 287.42 190.822C279.97 201.974 287.406 217.031 300.803 217.897C303.857 218.094 306.805 219.092 309.351 220.791C311.897 222.489 313.951 224.828 315.306 227.572C321.255 239.605 337.997 240.688 345.446 229.521C346.27 228.285 347.25 227.16 348.36 226.173C356.755 239.869 367.145 252.235 379.188 262.864C391.025 273.253 407.833 280.246 422.013 280.68C430.346 280.883 438.681 280.328 446.914 279.02C448.274 278.792 449.634 278.533 450.994 278.243C454.284 277.534 460.507 275.578 467.353 273.046L459.564 280.962C449.765 290.902 439.631 301.185 429.588 311.205L424.176 316.508C421.157 314.029 417.351 312.709 413.445 312.786C409.539 312.864 405.789 314.334 402.87 316.932C399.952 319.53 398.058 323.085 397.528 326.956C396.998 330.827 397.868 334.76 399.981 338.047L338.353 397.609C341.447 384.67 340.806 370.62 336.391 357.148C330.89 340.356 320.139 326.307 306.118 317.593L301.083 325.674C326.078 341.211 337.498 376.069 326.542 403.382C326.461 403.583 326.388 403.776 326.315 403.969C324.807 403.508 323.241 403.266 321.665 403.249C318.8 403.223 315.978 403.947 313.481 405.349C310.983 406.752 308.896 408.785 307.428 411.245C305.961 413.705 305.163 416.507 305.114 419.372C305.066 422.236 305.769 425.063 307.153 427.572L279.271 454.297C280.764 449.947 281.677 445.42 281.987 440.832C283.284 421.584 273.216 399.294 255.708 382.669C241.998 369.639 223.956 359.542 200.577 351.799C191.092 348.662 176.84 345.728 161.208 343.263C143.773 338.077 130.192 327.611 126.212 320.297C121.919 312.411 121.145 306.609 121.256 300.119L121.414 300.112C125.732 299.378 129.637 297.104 132.407 293.712C135.177 290.319 136.625 286.038 136.482 281.661C136.338 277.283 134.614 273.106 131.629 269.902C128.643 266.698 124.597 264.684 120.241 264.233C115.885 263.782 111.513 264.924 107.934 267.449C104.356 269.974 101.813 273.709 100.776 277.965C99.7396 282.22 100.28 286.707 102.296 290.595C104.313 294.483 107.67 297.508 111.745 299.111C111.547 306.82 112.304 314.705 117.837 324.871C121.027 330.729 126.498 335.65 131.646 339.328C113.078 337.255 95.4401 336.02 83.9682 336.029C83.2494 331.698 80.9841 327.775 77.5926 324.988C74.2012 322.201 69.9139 320.74 65.5264 320.874C61.139 321.009 56.9494 322.731 53.7352 325.72C50.5209 328.71 48.5004 332.764 48.0485 337.131C47.5966 341.497 48.7441 345.88 51.278 349.464C53.8119 353.049 57.5601 355.592 61.827 356.623C66.0939 357.653 70.5897 357.1 74.48 355.067C78.3703 353.034 81.3908 349.658 82.9811 345.567C110.705 345.304 173.791 352.993 197.581 360.869C218.69 367.834 235.069 376.752 247.546 388.078C246.131 387.33 244.667 386.679 243.164 386.128C230.455 381.523 217.636 383.241 204.971 385.946C190.68 388.996 177.569 395.482 164.19 401.136C150.529 406.907 137.057 408.281 124.141 399.01C123.044 398.221 121.695 396.792 120.259 397.701C118.631 398.714 119.332 400.642 119.528 402.17C121.245 415.223 135.461 426.431 151.501 427.846C167.813 429.28 181.202 421.672 194.67 414.369C203.746 409.448 212.466 403.857 221.48 398.83C235.438 391.046 247.954 395.381 259.841 403.876C260.755 404.53 261.647 405.212 262.535 405.894C269.564 417.137 273.204 429.295 272.484 440.188C271.22 458.943 258.145 472.563 242.933 485.616C238.964 483.365 234.292 482.693 229.85 483.735C225.407 484.777 221.521 487.456 218.966 491.237C217.213 493.825 216.159 496.821 215.905 499.937C215.651 503.052 216.207 506.18 217.518 509.017C218.83 511.855 220.852 514.305 223.389 516.13C225.926 517.956 228.892 519.094 231.999 519.436C235.105 519.777 238.248 519.31 241.12 518.079C243.993 516.848 246.499 514.896 248.396 512.411C250.292 509.926 251.513 506.994 251.942 503.898C252.371 500.801 251.992 497.647 250.843 494.74L252.059 493.578C259.9 495.98 268.624 503.154 273.185 514.573C280.023 531.695 278.793 547.535 275.363 556.658C270.594 569.336 261.689 579.482 248.139 587.674C233.179 596.719 212.389 603.253 186.286 607.131C185.326 605.308 183.759 603.877 181.857 603.086C177.192 601.199 171 603.618 169.073 608.08C166.836 613.252 169.367 618.902 174.876 621.052C179.38 622.795 184.032 620.995 186.301 616.765C188.829 616.4 191.309 616.014 193.743 615.609C221.787 610.886 243.446 603.046 258.971 592C269.522 600.714 276.29 611.175 272.962 625.978C270.682 636.059 267.801 646.002 265.654 656.108C262.465 671.091 258.967 686.095 264.963 701.326C270.859 716.309 285.64 726.782 298.638 724.716C300.175 724.472 302.208 724.599 302.718 722.754C303.167 721.122 301.43 720.228 300.362 719.399C287.812 709.636 285.315 696.327 286.979 681.591C288.612 667.154 291.114 652.745 289.995 638.174C289 625.261 287.017 612.479 279.001 601.595C275.059 596.245 269.648 592.493 264.686 588.274L263.97 588.165C273.451 580.262 280.222 570.885 284.282 560.032C289.541 546.052 288.711 527.726 282.035 511.054C279.123 503.841 274.561 497.411 268.715 492.281C268.249 491.879 267.784 491.493 267.311 491.114C295.021 492.81 320.968 514.811 326.437 542.125L335.787 540.253C332.544 524.065 323.165 509.06 309.37 498.038C296.224 487.512 280.429 481.687 264.7 481.493L314.007 434.245C317.16 435.858 320.75 436.413 324.243 435.826C327.533 435.269 330.573 433.716 332.953 431.377C335.367 429.006 336.99 425.947 337.6 422.618C338.209 419.29 337.776 415.855 336.359 412.782L385.853 364.91C385.307 369.008 385.864 372.63 386.538 376.285C388.05 384.536 389.933 389.513 392.109 395.279C393.147 398.017 394.215 400.851 395.362 404.35C395.658 405.23 395.953 406.113 396.249 406.998C398.534 413.866 400.685 420.314 400.735 427.497C400.787 435.888 397.361 451.319 391.041 457.268L384.729 463.527C381.174 462.058 377.215 461.889 373.547 463.049C369.88 464.209 366.738 466.624 364.674 469.87C362.61 473.116 361.755 476.986 362.26 480.799C362.764 484.613 364.596 488.127 367.434 490.724C370.272 493.321 373.934 494.836 377.777 495.002C381.62 495.168 385.398 493.974 388.449 491.631C391.5 489.288 393.628 485.945 394.459 482.189C395.29 478.433 394.772 474.504 392.995 471.092L406.904 457.44L411.551 452.882C415.64 450.773 420.326 448.693 423.258 447.945C427.468 446.872 434.3 446.032 439.276 446.49C451.975 447.679 467.609 452.806 474.871 458.162L475.123 458.349L475.4 458.499C482.005 462.138 487.067 466.98 492.423 472.092C495.944 475.46 499.582 478.942 503.708 482.06L509.475 474.462C505.78 471.652 502.493 468.51 499.019 465.179C493.518 459.915 487.831 454.472 480.272 450.255C471.462 443.889 454.676 438.312 440.167 436.952C436.095 436.572 431.406 436.853 427.241 437.436L462.828 402.559C465.985 404.288 469.622 404.93 473.181 404.387C476.739 403.844 480.019 402.145 482.517 399.553C485.014 396.961 486.59 393.62 487.001 390.044C487.412 386.468 486.635 382.856 484.791 379.765C492.172 370.733 495.45 354.662 495.394 345.262C495.345 336.554 492.839 329.053 490.414 321.796C490.119 320.929 489.832 320.063 489.553 319.198C488.339 315.5 487.183 312.434 486.163 309.73C484.065 304.174 482.408 299.786 481.048 292.376C480.495 289.381 480.071 286.675 480.442 283.939C481.465 276.443 488.091 268.751 495.166 261.438C498.077 262.687 501.286 263.073 504.411 262.55C506.799 262.146 509.068 261.217 511.055 259.83C513.041 258.443 514.695 256.633 515.898 254.53C517.101 252.427 517.822 250.084 518.01 247.668C518.198 245.253 517.849 242.826 516.986 240.562C531.301 228.202 546.23 216.572 561.717 205.717C581.981 191.633 600.319 184.847 617.77 184.971C618.382 184.972 618.99 184.988 619.598 185.009C621.74 185.373 623.908 185.562 626.08 185.577C632.137 186.415 638.044 188.109 643.625 190.607C638.204 195.703 633.261 201.285 628.857 207.283C614.104 227.552 613.303 242.558 615.231 251.588C617.927 264.212 626.491 273.421 638.133 276.226C642.068 277.173 646.155 277.312 650.145 276.636C657.828 275.338 665.119 271.092 670.565 264.402C680.459 252.241 683.977 237.062 680.469 221.652C677.572 208.94 670.196 197.541 659.95 189.444C661.794 188.127 663.714 186.92 665.7 185.829C681.412 177.348 695.131 173.587 718.128 171.459C735.638 169.843 759.527 175.858 773.437 192.946C790.229 213.579 796.313 230.447 799.075 264.343C795.652 265.864 792.862 268.525 791.18 271.872C789.498 275.22 789.028 279.046 789.851 282.701C790.801 286.901 793.336 290.572 796.926 292.949C800.285 295.238 804.396 296.147 808.406 295.486C808.731 295.476 809.015 295.421 809.283 295.36ZM340.784 212.627C339.727 214.2 338.275 215.468 336.574 216.304C334.874 217.14 332.983 217.515 331.092 217.391C329.201 217.267 327.376 216.648 325.799 215.597C324.222 214.547 322.948 213.1 322.105 211.402C321.263 209.703 319.989 208.255 318.411 207.203C316.833 206.151 315.006 205.532 313.113 205.408C311.226 205.277 309.407 204.653 307.836 203.599C306.265 202.545 304.998 201.098 304.161 199.402C303.323 197.706 302.945 195.82 303.063 193.932C303.182 192.044 303.793 190.22 304.836 188.642C305.887 187.063 306.506 185.235 306.629 183.342C306.752 181.449 306.376 179.556 305.537 177.854C304.702 176.153 304.328 174.263 304.452 172.371C304.577 170.48 305.196 168.655 306.247 167.078C307.298 165.501 308.745 164.228 310.443 163.386C312.141 162.544 314.03 162.162 315.921 162.279C317.814 162.4 319.706 162.021 321.406 161.181C323.107 160.34 324.557 159.067 325.611 157.49C326.667 155.917 328.117 154.648 329.817 153.811C331.517 152.974 333.407 152.598 335.298 152.72C337.189 152.843 339.014 153.459 340.592 154.509C342.17 155.558 343.445 157.003 344.289 158.7C345.131 160.399 346.405 161.847 347.983 162.899C349.561 163.951 351.388 164.57 353.281 164.694C355.17 164.824 356.992 165.448 358.564 166.503C360.137 167.558 361.405 169.007 362.243 170.706C363.08 172.404 363.458 174.293 363.337 176.183C363.216 178.073 362.602 179.898 361.555 181.476C360.503 183.055 359.885 184.882 359.762 186.776C359.639 188.669 360.015 190.561 360.854 192.263C361.689 193.964 362.063 195.855 361.939 197.746C361.814 199.637 361.195 201.463 360.144 203.039C359.093 204.616 357.646 205.89 355.948 206.732C354.25 207.574 352.361 207.956 350.47 207.839C350.042 207.813 349.613 207.812 349.185 207.835C347.325 203.956 345.827 200.382 344.676 197.255C347.6 194.496 349.433 190.778 349.842 186.78C350.251 182.781 349.207 178.769 346.902 175.476C344.597 172.183 341.184 169.83 337.287 168.847C333.39 167.863 329.269 168.314 325.677 170.118C322.086 171.922 319.263 174.959 317.725 178.672C316.187 182.386 316.037 186.529 317.302 190.344C318.566 194.16 321.161 197.393 324.613 199.452C328.064 201.512 332.141 202.261 336.099 201.563C337.355 204.872 338.932 208.566 340.853 212.528L340.784 212.627ZM332.939 191.478C332.941 191.539 332.971 191.604 332.985 191.665L332.765 191.675C331.194 191.577 329.708 190.923 328.575 189.83C327.441 188.738 326.734 187.277 326.579 185.71C326.424 184.143 326.831 182.572 327.729 181.278C328.626 179.984 329.954 179.052 331.476 178.649C332.998 178.245 334.614 178.396 336.035 179.075C337.455 179.754 338.588 180.916 339.23 182.354C339.872 183.792 339.981 185.411 339.538 186.922C339.096 188.433 338.129 189.737 336.813 190.601L332.939 191.478ZM109.833 282.91C109.673 280.926 110.205 278.948 111.339 277.313C112.473 275.678 114.14 274.487 116.054 273.942C117.968 273.398 120.012 273.534 121.836 274.328C123.661 275.122 125.155 276.524 126.062 278.295C126.969 280.066 127.234 282.097 126.812 284.042C126.389 285.987 125.305 287.725 123.745 288.96C122.185 290.196 120.245 290.852 118.255 290.817C116.265 290.782 114.349 290.058 112.833 288.768C111.97 288.039 111.261 287.146 110.746 286.14C110.231 285.134 109.921 284.036 109.833 282.91ZM72.653 344.54C71.5508 345.835 70.0891 346.775 68.4529 347.24C66.8166 347.705 65.0793 347.674 63.4605 347.152C61.8416 346.629 60.414 345.639 59.3582 344.305C58.3023 342.971 57.6656 341.354 57.5285 339.659C57.3914 337.963 57.7602 336.265 58.5881 334.779C59.416 333.293 60.6659 332.086 62.1798 331.31C63.6937 330.534 65.4035 330.225 67.0932 330.421C68.7829 330.617 70.3765 331.31 71.6725 332.412C73.4084 333.891 74.4865 335.999 74.6703 338.273C74.8541 340.546 74.1286 342.8 72.653 344.54ZM406.895 329.127C406.913 327.519 407.494 325.969 408.537 324.745C409.58 323.521 411.019 322.702 412.604 322.43C413.008 322.363 413.417 322.332 413.826 322.335C415.183 322.349 416.506 322.765 417.626 323.53C418.747 324.296 419.616 325.376 420.122 326.636C420.629 327.895 420.751 329.276 420.472 330.604C420.194 331.933 419.528 333.149 418.559 334.098C417.59 335.048 416.36 335.689 415.027 335.941C413.693 336.192 412.315 336.042 411.066 335.51C409.818 334.978 408.755 334.087 408.013 332.951C407.27 331.815 406.881 330.484 406.895 329.127ZM241.125 506.225C240.333 507.396 239.264 508.355 238.013 509.015C236.762 509.675 235.367 510.016 233.953 510.008C232.539 510.001 231.148 509.644 229.904 508.971C228.66 508.297 227.602 507.327 226.822 506.147C226.043 504.967 225.566 503.612 225.435 502.204C225.304 500.796 225.522 499.377 226.07 498.073C226.619 496.769 227.48 495.62 228.578 494.729C229.676 493.837 230.977 493.23 232.365 492.961L232.577 492.921C234.237 492.642 235.942 492.857 237.482 493.538C239.021 494.22 240.327 495.338 241.237 496.754C242.147 498.17 242.621 499.823 242.602 501.506C242.582 503.19 242.068 504.83 241.125 506.225ZM264.134 488.823C263.033 488.097 261.895 487.428 260.725 486.821L261.232 484.818C262.085 485.074 262.831 485.602 263.356 486.323C263.88 487.044 264.153 487.917 264.133 488.808L264.134 488.823ZM326.302 424.563C325.332 425.512 324.103 426.153 322.77 426.404C321.436 426.654 320.058 426.504 318.81 425.972C317.562 425.44 316.5 424.55 315.757 423.414C315.015 422.278 314.626 420.947 314.64 419.591C314.653 418.234 315.069 416.911 315.834 415.791C316.599 414.67 317.679 413.801 318.937 413.294C320.196 412.787 321.577 412.665 322.905 412.943C324.233 413.22 325.449 413.885 326.399 414.854C327.667 416.155 328.368 417.905 328.35 419.721C328.331 421.537 327.595 423.273 326.301 424.547L326.302 424.563ZM385.331 478.755C385.309 480.34 384.739 481.869 383.717 483.081C382.695 484.293 381.285 485.114 379.726 485.404C378.167 485.693 376.556 485.433 375.167 484.669C373.778 483.905 372.697 482.682 372.108 481.211C371.518 479.739 371.457 478.108 371.934 476.596C372.411 475.084 373.397 473.784 374.725 472.918C376.053 472.051 377.639 471.671 379.216 471.842C380.792 472.014 382.26 472.726 383.37 473.858C384.004 474.501 384.503 475.264 384.84 476.102C385.176 476.94 385.343 477.836 385.33 478.739L385.331 478.755ZM477.59 388.31C477.573 389.896 477.007 391.428 475.988 392.643C474.968 393.859 473.559 394.684 472 394.977C470.441 395.271 468.829 395.014 467.437 394.252C466.046 393.49 464.962 392.269 464.37 390.797C463.778 389.325 463.714 387.693 464.19 386.18C464.666 384.666 465.652 383.365 466.98 382.496C468.308 381.628 469.896 381.248 471.473 381.419C473.05 381.59 474.519 382.303 475.63 383.436C476.26 384.077 476.758 384.836 477.094 385.67C477.431 386.503 477.599 387.395 477.589 388.294L477.59 388.31ZM485.881 345.392C485.925 353.063 483.066 366.612 477.746 373.429C474.643 371.958 471.156 371.499 467.778 372.117C464.4 372.735 461.301 374.397 458.919 376.871C456.537 379.344 454.991 382.503 454.5 385.902C454.01 389.301 454.598 392.768 456.183 395.814L417.416 433.78L408.305 442.715C409.664 437.109 410.297 431.618 410.27 427.44C410.217 418.736 407.716 411.235 405.291 403.978C405.002 403.112 404.714 402.242 404.429 401.376C403.216 397.682 402.06 394.616 401.039 391.908C398.942 386.355 397.285 381.968 395.921 374.558C395.371 371.559 394.943 368.857 395.318 366.117C396.286 359.041 402.241 351.788 408.86 344.847C411.331 345.613 413.946 345.789 416.497 345.361C419.798 344.806 422.848 343.248 425.233 340.899C427.35 338.822 428.865 336.209 429.615 333.339C430.366 330.469 430.325 327.45 429.496 324.601L436.237 317.988L436.271 317.959C446.348 307.903 456.5 297.604 466.322 287.64L470.992 282.906C470.475 286.948 471.026 290.527 471.69 294.14C473.202 302.392 475.089 307.369 477.262 313.135C478.299 315.877 479.368 318.71 480.515 322.206C480.81 323.088 481.106 323.971 481.401 324.854C483.674 331.718 485.834 338.185 485.88 345.369L485.881 345.392ZM508.546 246.528C508.529 248.115 507.963 249.646 506.944 250.862C505.925 252.078 504.515 252.903 502.956 253.196C501.397 253.489 499.785 253.233 498.393 252.471C497.002 251.708 495.918 250.487 495.326 249.015C494.734 247.543 494.671 245.912 495.147 244.398C495.622 242.885 496.608 241.583 497.936 240.715C499.264 239.847 500.852 239.466 502.429 239.638C504.006 239.809 505.475 240.522 506.586 241.655C507.216 242.295 507.713 243.053 508.049 243.886C508.386 244.719 508.554 245.611 508.545 246.509L508.546 246.528ZM594.955 125.546C596.381 124.618 598.05 124.134 599.751 124.155C601.452 124.176 603.109 124.701 604.511 125.663C605.914 126.626 607 127.983 607.632 129.562C608.263 131.142 608.412 132.874 608.06 134.538C607.708 136.202 606.87 137.725 605.652 138.913C604.435 140.101 602.892 140.902 601.22 141.213C599.548 141.524 597.82 141.333 596.257 140.663C594.693 139.992 593.364 138.874 592.436 137.447C591.818 136.5 591.393 135.439 591.185 134.327C590.977 133.215 590.99 132.072 591.224 130.965C591.458 129.858 591.908 128.808 592.548 127.874C593.188 126.941 594.006 126.143 594.954 125.527L594.955 125.546ZM671.201 223.811C674.054 236.296 671.199 248.576 663.199 258.424C657.202 265.791 648.671 268.994 640.375 266.999C632.385 265.071 626.475 258.582 624.547 249.64C620.763 231.928 636.794 209.394 652.285 195.629C661.78 202.438 668.639 212.52 671.201 223.811ZM799.177 280.641C798.828 278.937 799.162 277.164 800.105 275.703C801.049 274.243 802.527 273.21 804.223 272.827C805.919 272.444 807.698 272.741 809.178 273.654C810.658 274.568 811.72 276.025 812.138 277.713C812.53 279.529 812.213 281.427 811.253 283.017C810.831 283.781 810.253 284.447 809.555 284.971C808.858 285.496 808.058 285.867 807.207 286.06C806.356 286.253 805.474 286.263 804.618 286.091C803.763 285.919 802.954 285.568 802.244 285.061C800.703 284.026 799.612 282.447 799.188 280.64L799.177 280.641Z" fill="#A88771"/>
<path d="M215.801 439.686C208.85 438.821 202.318 441.084 196.264 445.281C193.107 447.478 191.96 450.518 192.725 454.138C193.519 457.885 196.176 459.853 199.899 460.337C210.404 461.693 215.142 454.186 219.866 446.997C223.786 441.026 223.299 440.311 215.801 439.686Z" fill="#F74700"/>
<path d="M78.5305 291.536C78.7189 281.142 75.1622 272.394 67.3709 265.698C61.8889 260.986 53.5451 264.766 52.6303 272.273C51.9106 278.181 54.2509 283.077 58.7492 286.767C63.1588 290.372 68.3379 292.693 73.6385 294.689C76.7016 295.839 78.7659 295.249 78.5305 291.536Z" fill="#F74700"/>
<path d="M366.708 550.654C367.373 549.054 367.606 547.308 367.382 545.59C367.159 543.872 366.487 542.243 365.434 540.868C364.381 539.492 362.985 538.418 361.385 537.753C359.786 537.088 358.039 536.856 356.321 537.08C354.604 537.304 352.858 537.071 351.259 536.406C349.66 535.742 348.264 534.668 347.211 533.293C346.158 531.921 344.763 530.85 343.165 530.187C341.568 529.524 339.824 529.292 338.109 529.516C336.394 529.739 334.768 530.41 333.394 531.46C332.02 532.51 330.946 533.903 330.28 535.499C329.614 537.098 328.54 538.494 327.165 539.547C325.789 540.6 324.162 541.272 322.445 541.498C320.727 541.721 319.098 542.392 317.722 543.445C316.346 544.497 315.271 545.893 314.606 547.492C313.941 549.092 313.708 550.838 313.932 552.556C314.156 554.274 314.828 555.903 315.881 557.279C316.934 558.654 317.606 560.283 317.83 562.001C318.054 563.718 317.822 565.465 317.156 567.064C316.491 568.664 316.258 570.41 316.482 572.128C316.705 573.846 317.377 575.475 318.43 576.851C319.483 578.226 320.879 579.301 322.479 579.966C324.078 580.63 325.825 580.862 327.542 580.638C329.26 580.414 331.006 580.647 332.605 581.311C334.204 581.976 335.6 583.05 336.653 584.425C337.706 585.801 339.102 586.876 340.702 587.541C342.301 588.206 344.047 588.438 345.765 588.215C347.483 587.991 349.112 587.319 350.487 586.267C351.863 585.214 352.938 583.818 353.603 582.218C354.268 580.619 355.342 579.222 356.717 578.169C358.093 577.116 359.721 576.444 361.438 576.22C363.156 575.996 364.784 575.324 366.16 574.272C367.535 573.219 368.609 571.823 369.274 570.224C369.939 568.624 370.171 566.878 369.947 565.16C369.723 563.443 369.051 561.815 367.998 560.439C366.944 559.065 366.269 557.437 366.043 555.719C365.816 554.002 366.045 552.255 366.708 550.654ZM358.075 559.84C358.728 560.692 359.144 561.702 359.283 562.766C359.422 563.83 359.278 564.912 358.866 565.904C358.454 566.895 357.789 567.76 356.936 568.413C356.084 569.065 355.075 569.482 354.011 569.621C352.944 569.758 351.932 570.173 351.077 570.826C350.221 571.478 349.553 572.345 349.139 573.338C348.728 574.329 348.062 575.195 347.21 575.848C346.358 576.5 345.348 576.917 344.284 577.056C343.219 577.194 342.137 577.05 341.146 576.638C340.155 576.225 339.29 575.559 338.638 574.706C337.985 573.853 337.12 573.188 336.128 572.776C335.137 572.364 334.055 572.219 332.99 572.357C331.925 572.496 330.843 572.352 329.852 571.94C328.861 571.528 327.996 570.862 327.343 570.009C326.691 569.156 326.274 568.147 326.136 567.082C325.997 566.018 326.141 564.936 326.553 563.944C326.965 562.953 327.109 561.87 326.97 560.806C326.831 559.741 326.414 558.732 325.761 557.88C325.112 557.026 324.698 556.017 324.561 554.953C324.425 553.889 324.571 552.808 324.984 551.818C325.397 550.828 326.064 549.964 326.916 549.313C327.769 548.662 328.778 548.247 329.842 548.11C330.909 547.973 331.921 547.558 332.777 546.905C333.632 546.253 334.3 545.386 334.713 544.393C335.125 543.401 335.791 542.535 336.644 541.883C337.497 541.23 338.506 540.814 339.571 540.675C340.636 540.537 341.718 540.681 342.709 541.093C343.701 541.505 344.566 542.172 345.218 543.025C345.871 543.877 346.736 544.543 347.728 544.956C348.719 545.368 349.802 545.512 350.867 545.373C351.931 545.234 353.013 545.378 354.005 545.79C354.996 546.203 355.861 546.869 356.513 547.721C357.166 548.574 357.582 549.583 357.721 550.648C357.859 551.712 357.715 552.795 357.303 553.786C356.891 554.774 356.745 555.854 356.88 556.916C357.016 557.979 357.428 558.987 358.075 559.84Z" fill="#F74700"/>
<path d="M185.86 621.586C185.338 620.962 184.531 620.443 184.359 619.328C183.113 620.493 181.558 621.275 179.88 621.58C178.202 621.886 176.472 621.702 174.895 621.051C173.82 620.637 172.817 620.058 171.92 619.335C171.944 619.907 171.548 620.23 171.243 620.602C165.418 627.742 159.609 634.892 153.976 642.198C148.844 648.878 151.631 658.813 160.28 661.037C167.123 662.801 174.303 657.964 174.791 651.419C175.42 643.027 176.313 634.65 177.203 626.281C177.287 624.852 177.554 623.44 177.999 622.079C179.397 630.367 180.247 638.526 180.869 646.68C181.364 653.125 184.349 658.45 189.499 660.278C193.459 661.68 200.113 659.752 202.422 656.531C205.727 651.925 206.001 645.63 202.819 641.764C197.244 634.978 191.509 628.319 185.86 621.586Z" fill="#F74700"/>
<path d="M171.394 618.882C169.918 617.554 168.901 615.794 168.488 613.853C168.074 611.911 168.286 609.889 169.092 608.075C171.019 603.613 177.211 601.194 181.877 603.081C182.977 603.532 183.97 604.209 184.79 605.07C190.102 598.986 194.574 592.682 199.51 586.748C202.319 583.371 205.024 579.936 205.021 575.219C204.998 569.052 199.409 563.737 192.921 563.665C187.149 563.601 181.196 569.36 181.053 575.271C180.854 583.514 179.731 591.68 179.16 599.889C179.114 600.533 179.237 601.24 178.374 601.509C177.526 601.22 177.748 600.432 177.676 599.836C176.699 591.786 175.667 583.739 174.821 575.672C173.889 566.761 165.038 561.721 157.277 566.106C151.024 569.642 149.021 577.679 153.603 583.335C156.842 587.345 160.172 591.294 163.527 595.214C166.076 598.201 169.098 600.932 170.918 604.604C169.702 605.043 169.129 604.293 168.449 603.773C162.064 598.759 155.712 593.701 149.258 588.775C144.95 585.476 140.344 584.898 135.436 587.664C131.431 589.936 129.213 594.728 129.906 600.1C130.402 603.949 133.902 607.619 137.868 608.812C142.893 610.324 148.101 609.967 153.212 610.589C157.7 611.141 162.206 611.545 166.866 612.032C166.368 613.055 165.786 613.212 165.27 613.261C158.394 613.983 151.504 614.551 144.645 615.408C140.004 615.992 135.245 616.369 132.25 620.993C129.254 625.617 129.371 631.176 133.007 635.614C136.198 639.491 142.058 640.813 146.816 638.683C149.451 637.503 151.391 635.37 153.526 633.534C159.349 628.523 165.163 623.485 171.394 618.882Z" fill="#F74700"/>
<path d="M214.906 615.3C209.543 615.026 204.183 614.72 198.867 614.017C195.089 613.52 191.181 614.151 187.499 612.825C187.421 613.821 187.19 614.798 186.814 615.722C186.331 616.916 185.628 618.01 184.742 618.944C191.689 624.372 198.328 629.63 205.056 634.777C214.151 641.742 219.758 639.569 223.406 635.826C223.406 635.826 226.252 631.801 226.266 627.486C226.285 620.574 221.828 615.656 214.906 615.3Z" fill="#F74700"/>
<path d="M223.43 589.495C219.313 585.027 212.286 583.825 207.867 587.476C200.855 593.265 193.482 598.668 187.26 605.379C186.884 605.835 186.423 606.212 185.902 606.489C186.989 608.186 187.553 610.164 187.526 612.178C187.595 612.088 187.686 612.016 187.79 611.971C187.894 611.925 188.009 611.906 188.122 611.917C192.541 612.371 196.824 611.198 201.169 610.828C205.98 610.414 210.765 609.727 215.567 609.205C217.158 609.058 218.702 608.581 220.099 607.806C221.496 607.03 222.716 605.972 223.683 604.7C227.239 600.265 227.196 593.603 223.43 589.495Z" fill="#F74700"/>
<path d="M353.261 164.695C351.369 164.571 349.542 163.952 347.964 162.9C346.386 161.848 345.112 160.4 344.27 158.7C343.425 157.004 342.151 155.559 340.573 154.509C338.995 153.46 337.169 152.843 335.279 152.721C333.388 152.598 331.498 152.975 329.798 153.812C328.098 154.649 326.648 155.917 325.592 157.491C324.538 159.068 323.088 160.341 321.387 161.181C319.687 162.022 317.795 162.401 315.902 162.28C314.012 162.166 312.126 162.551 310.431 163.394C308.736 164.238 307.292 165.512 306.243 167.088C305.194 168.664 304.577 170.488 304.453 172.377C304.329 174.266 304.703 176.155 305.537 177.854C306.376 179.556 306.752 181.449 306.629 183.342C306.506 185.235 305.888 187.063 304.836 188.642C303.789 190.221 303.175 192.048 303.055 193.939C302.935 195.831 303.314 197.72 304.154 199.419C304.994 201.118 306.265 202.567 307.84 203.62C309.415 204.674 311.239 205.295 313.13 205.423C315.018 205.548 316.84 206.166 318.415 207.215C319.99 208.264 321.262 209.708 322.105 211.402C322.95 213.099 324.224 214.544 325.802 215.593C327.38 216.643 329.206 217.259 331.096 217.382C332.987 217.504 334.877 217.128 336.577 216.291C338.277 215.454 339.727 214.185 340.783 212.612C341.837 211.035 343.287 209.762 344.988 208.921C346.688 208.081 348.58 207.702 350.473 207.823C352.365 207.94 354.254 207.558 355.951 206.716C357.649 205.874 359.096 204.601 360.147 203.024C361.198 201.447 361.817 199.622 361.942 197.731C362.066 195.839 361.692 193.949 360.857 192.248C360.018 190.546 359.642 188.653 359.765 186.76C359.888 184.867 360.507 183.039 361.559 181.46C362.602 179.881 363.213 178.055 363.33 176.166C363.447 174.277 363.067 172.39 362.228 170.693C361.388 168.996 360.118 167.55 358.545 166.497C356.972 165.445 355.15 164.823 353.261 164.695ZM349.917 186.119C349.705 189.427 348.517 192.597 346.503 195.229C344.489 197.862 341.74 199.838 338.603 200.908C335.467 201.978 332.083 202.093 328.881 201.24C325.678 200.387 322.801 198.604 320.612 196.116C318.423 193.627 317.02 190.546 316.583 187.26C316.145 183.975 316.69 180.634 318.151 177.659C319.612 174.684 321.922 172.209 324.789 170.546C327.656 168.884 330.952 168.11 334.259 168.32C336.457 168.461 338.605 169.033 340.582 170.004C342.558 170.976 344.324 172.327 345.778 173.981C347.231 175.635 348.345 177.56 349.055 179.644C349.764 181.729 350.056 183.933 349.914 186.131L349.917 186.119Z" fill="#CE3100"/>
<path d="M307.228 284.965C305.498 285.025 303.783 284.629 302.254 283.817C300.725 283.004 299.437 281.804 298.519 280.336C297.6 278.868 296.311 277.668 294.781 276.856C293.251 276.044 291.535 275.649 289.804 275.71C288.073 275.772 286.389 276.288 284.921 277.206C283.452 278.125 282.252 279.413 281.439 280.943C280.628 282.474 279.428 283.764 277.96 284.683C276.492 285.602 274.807 286.118 273.076 286.178C271.343 286.238 269.657 286.753 268.186 287.672C266.716 288.59 265.513 289.88 264.7 291.411C263.886 292.942 263.491 294.661 263.552 296.394C263.614 298.127 264.131 299.813 265.052 301.282C265.971 302.75 266.488 304.435 266.549 306.167C266.611 307.899 266.215 309.616 265.402 311.146C264.587 312.676 264.191 314.394 264.251 316.127C264.312 317.86 264.827 319.546 265.747 321.016C266.666 322.486 267.956 323.688 269.487 324.501C271.019 325.313 272.737 325.708 274.469 325.646C276.199 325.586 277.915 325.982 279.444 326.795C280.972 327.607 282.26 328.807 283.179 330.275C284.098 331.743 285.387 332.943 286.917 333.755C288.447 334.567 290.163 334.962 291.894 334.901C293.625 334.839 295.309 334.323 296.777 333.405C298.245 332.486 299.446 331.198 300.259 329.668C301.07 328.137 302.27 326.847 303.738 325.928C305.206 325.009 306.891 324.493 308.622 324.433C310.353 324.371 312.037 323.855 313.506 322.937C314.974 322.018 316.175 320.729 316.987 319.199C317.799 317.669 318.194 315.952 318.132 314.221C318.07 312.49 317.554 310.805 316.635 309.337C315.717 307.868 315.202 306.183 315.14 304.452C315.079 302.721 315.473 301.004 316.285 299.473C317.102 297.943 317.501 296.225 317.443 294.492C317.384 292.758 316.87 291.071 315.952 289.6C315.033 288.129 313.743 286.926 312.212 286.112C310.68 285.298 308.962 284.902 307.228 284.965ZM306.62 301.676C306.116 302.624 305.871 303.688 305.909 304.761C305.947 305.834 306.268 306.878 306.838 307.788C307.403 308.698 307.72 309.741 307.755 310.811C307.791 311.882 307.545 312.943 307.042 313.889C306.539 314.835 305.796 315.632 304.888 316.2C303.98 316.769 302.939 317.089 301.869 317.128C300.795 317.166 299.751 317.486 298.841 318.056C297.93 318.626 297.186 319.426 296.683 320.375C296.179 321.323 295.435 322.122 294.525 322.691C293.615 323.261 292.572 323.581 291.499 323.619C290.426 323.657 289.362 323.412 288.414 322.909C287.466 322.406 286.667 321.662 286.097 320.752C285.527 319.841 284.728 319.097 283.78 318.594C282.831 318.091 281.767 317.847 280.694 317.886C279.621 317.923 278.558 317.677 277.61 317.173C276.663 316.669 275.864 315.925 275.295 315.015C274.726 314.105 274.406 313.061 274.368 311.989C274.329 310.916 274.574 309.852 275.076 308.904C275.58 307.958 275.826 306.895 275.79 305.824C275.754 304.752 275.437 303.709 274.871 302.799C274.301 301.889 273.982 300.845 273.944 299.772C273.906 298.699 274.151 297.635 274.655 296.687C275.158 295.739 275.902 294.94 276.812 294.371C277.722 293.801 278.766 293.482 279.839 293.444C280.912 293.405 281.956 293.085 282.865 292.515C283.775 291.945 284.519 291.146 285.021 290.197C285.525 289.249 286.269 288.45 287.18 287.881C288.09 287.311 289.134 286.991 290.207 286.953C291.28 286.915 292.344 287.16 293.293 287.663C294.241 288.166 295.041 288.91 295.611 289.82C296.18 290.73 296.979 291.473 297.926 291.977C298.874 292.48 299.938 292.724 301.01 292.686C302.083 292.65 303.147 292.896 304.095 293.401C305.042 293.906 305.84 294.651 306.409 295.562C306.977 296.473 307.296 297.518 307.333 298.591C307.37 299.664 307.124 300.728 306.62 301.676Z" fill="#B7CCB3"/>
<path d="M300.999 292.694C299.927 292.733 298.863 292.488 297.915 291.985C296.967 291.482 296.169 290.738 295.599 289.828C295.029 288.918 294.23 288.174 293.281 287.671C292.333 287.168 291.269 286.923 290.196 286.961C289.123 287 288.079 287.319 287.168 287.889C286.258 288.458 285.514 289.257 285.01 290.205C284.507 291.154 283.764 291.953 282.854 292.523C281.944 293.093 280.901 293.414 279.828 293.452C278.757 293.493 277.716 293.814 276.809 294.384C275.902 294.953 275.16 295.751 274.658 296.698C274.156 297.644 273.911 298.706 273.949 299.777C273.986 300.847 274.304 301.89 274.871 302.799C275.44 303.709 275.76 304.753 275.798 305.826C275.836 306.899 275.592 307.963 275.088 308.911C274.586 309.86 274.341 310.923 274.38 311.996C274.418 313.069 274.738 314.112 275.307 315.022C275.876 315.932 276.674 316.676 277.622 317.18C278.57 317.684 279.633 317.93 280.706 317.893C281.779 317.854 282.843 318.098 283.791 318.601C284.74 319.105 285.539 319.849 286.109 320.759C286.678 321.669 287.477 322.413 288.426 322.916C289.374 323.42 290.438 323.665 291.511 323.626C292.583 323.588 293.627 323.268 294.537 322.699C295.447 322.129 296.191 321.33 296.695 320.382C297.196 319.433 297.938 318.633 298.846 318.062C299.754 317.491 300.797 317.169 301.869 317.128C302.941 317.09 303.985 316.77 304.895 316.201C305.805 315.632 306.55 314.833 307.053 313.885C307.557 312.937 307.802 311.873 307.764 310.8C307.726 309.727 307.406 308.683 306.837 307.773C306.267 306.863 305.946 305.819 305.908 304.746C305.87 303.673 306.115 302.609 306.62 301.661C307.118 300.712 307.36 299.65 307.319 298.579C307.279 297.509 306.958 296.468 306.389 295.56C305.82 294.652 305.023 293.91 304.077 293.407C303.131 292.904 302.07 292.658 300.999 292.694ZM300.325 304.954C300.393 306.829 299.903 308.681 298.918 310.277C297.933 311.873 296.496 313.141 294.791 313.921C293.085 314.7 291.186 314.957 289.335 314.657C287.483 314.358 285.762 313.516 284.389 312.238C283.016 310.961 282.053 309.305 281.621 307.479C281.189 305.654 281.308 303.742 281.963 301.984C282.618 300.227 283.779 298.703 285.3 297.605C286.821 296.508 288.633 295.886 290.507 295.818C291.752 295.773 292.993 295.974 294.16 296.409C295.327 296.844 296.396 297.504 297.308 298.353C298.22 299.201 298.956 300.221 299.473 301.353C299.991 302.486 300.28 303.71 300.325 304.954Z" fill="#F74700"/>
<path d="M290.507 295.818C288.633 295.886 286.821 296.508 285.3 297.605C283.779 298.703 282.618 300.227 281.963 301.984C281.308 303.742 281.189 305.654 281.621 307.479C282.053 309.305 283.016 310.961 284.389 312.238C285.762 313.516 287.483 314.358 289.335 314.657C291.186 314.957 293.085 314.7 294.791 313.921C296.496 313.141 297.933 311.873 298.918 310.277C299.903 308.681 300.393 306.829 300.325 304.954C300.281 303.71 299.992 302.486 299.474 301.353C298.957 300.22 298.221 299.2 297.309 298.352C296.398 297.503 295.327 296.843 294.16 296.408C292.993 295.973 291.752 295.773 290.507 295.818ZM294.588 305.16C294.616 305.901 294.423 306.633 294.035 307.264C293.646 307.895 293.079 308.397 292.405 308.706C291.731 309.014 290.981 309.116 290.249 308.998C289.517 308.88 288.837 308.548 288.294 308.043C287.751 307.538 287.37 306.884 287.2 306.163C287.029 305.441 287.076 304.686 287.335 303.991C287.594 303.296 288.053 302.694 288.654 302.261C289.256 301.827 289.972 301.582 290.713 301.556C291.204 301.538 291.694 301.617 292.154 301.788C292.615 301.96 293.037 302.22 293.397 302.555C293.757 302.89 294.047 303.292 294.252 303.739C294.456 304.186 294.57 304.669 294.588 305.16Z" fill="#B7CCB3"/>
<path d="M290.712 301.556C289.973 301.583 289.258 301.828 288.658 302.262C288.058 302.695 287.6 303.296 287.342 303.99C287.083 304.684 287.037 305.438 287.207 306.159C287.378 306.879 287.758 307.532 288.3 308.036C288.842 308.54 289.522 308.872 290.252 308.99C290.983 309.108 291.732 309.007 292.405 308.699C293.078 308.391 293.645 307.89 294.033 307.26C294.422 306.631 294.615 305.9 294.588 305.16C294.57 304.669 294.456 304.186 294.251 303.739C294.047 303.292 293.756 302.89 293.397 302.555C293.037 302.22 292.614 301.96 292.154 301.788C291.693 301.617 291.204 301.538 290.712 301.556Z" fill="#F74700"/>
<path d="M171.598 495.582C170.526 494.366 169.793 492.889 169.473 491.299C169.153 489.71 169.256 488.064 169.774 486.528C170.292 484.992 170.397 483.346 170.077 481.757C169.758 480.167 169.026 478.69 167.954 477.473C166.883 476.257 165.51 475.344 163.974 474.826C162.437 474.309 160.792 474.205 159.203 474.525C157.613 474.845 155.968 474.741 154.431 474.224C152.895 473.706 151.521 472.794 150.449 471.578C149.378 470.361 148.005 469.447 146.469 468.929C144.933 468.411 143.287 468.307 141.698 468.626C140.109 468.946 138.631 469.679 137.415 470.751C136.199 471.823 135.287 473.197 134.77 474.733C134.251 476.268 133.338 477.64 132.121 478.711C130.905 479.781 129.429 480.513 127.84 480.832C126.25 481.152 124.773 481.884 123.556 482.956C122.339 484.028 121.426 485.401 120.908 486.938C120.391 488.475 120.287 490.121 120.607 491.71C120.927 493.3 121.66 494.777 122.732 495.994C123.804 497.21 124.537 498.687 124.857 500.277C125.177 501.866 125.074 503.512 124.556 505.048C124.038 506.584 123.933 508.23 124.253 509.819C124.572 511.409 125.304 512.886 126.376 514.103C127.447 515.319 128.82 516.232 130.356 516.75C131.893 517.267 133.538 517.371 135.127 517.051C136.717 516.73 138.362 516.834 139.899 517.351C141.436 517.869 142.809 518.782 143.881 519.998C144.953 521.214 146.326 522.127 147.861 522.644C149.397 523.161 151.042 523.265 152.631 522.946C154.22 522.626 155.697 521.894 156.913 520.822C158.13 519.751 159.042 518.379 159.56 516.843C160.079 515.308 160.993 513.936 162.209 512.866C163.425 511.795 164.902 511.063 166.49 510.744C168.08 510.425 169.559 509.693 170.776 508.621C171.994 507.55 172.907 506.176 173.425 504.639C173.943 503.102 174.047 501.456 173.726 499.866C173.405 498.276 172.672 496.798 171.598 495.582ZM159.145 505.07C158.159 505.268 157.244 505.721 156.489 506.385C155.735 507.049 155.169 507.899 154.848 508.852C154.528 509.804 153.963 510.656 153.21 511.321C152.456 511.986 151.541 512.441 150.556 512.64C149.571 512.838 148.551 512.774 147.599 512.454C146.646 512.133 145.795 511.567 145.131 510.813C144.466 510.06 143.615 509.494 142.663 509.173C141.711 508.853 140.691 508.788 139.706 508.985C138.718 509.185 137.696 509.121 136.741 508.799C135.787 508.477 134.934 507.909 134.269 507.153C133.604 506.396 133.15 505.477 132.954 504.489C132.758 503.501 132.826 502.479 133.151 501.525C133.471 500.573 133.536 499.554 133.338 498.569C133.139 497.585 132.686 496.67 132.022 495.916C131.358 495.162 130.904 494.246 130.705 493.261C130.507 492.276 130.571 491.256 130.892 490.303C131.212 489.351 131.778 488.5 132.532 487.835C133.285 487.171 134.201 486.716 135.186 486.518C136.171 486.32 137.087 485.867 137.841 485.203C138.595 484.539 139.161 483.688 139.482 482.736C139.802 481.783 140.367 480.931 141.121 480.266C141.874 479.601 142.789 479.147 143.774 478.948C144.76 478.749 145.78 478.813 146.732 479.134C147.684 479.455 148.535 480.02 149.2 480.775C149.865 481.528 150.716 482.093 151.668 482.414C152.62 482.735 153.64 482.8 154.625 482.602C155.612 482.402 156.635 482.467 157.589 482.788C158.544 483.11 159.397 483.678 160.062 484.435C160.726 485.192 161.18 486.11 161.376 487.099C161.573 488.087 161.505 489.109 161.179 490.062C160.859 491.014 160.795 492.034 160.993 493.018C161.191 494.003 161.645 494.918 162.308 495.672C162.973 496.426 163.427 497.341 163.625 498.326C163.824 499.312 163.76 500.332 163.439 501.284C163.118 502.237 162.553 503.088 161.799 503.752C161.045 504.417 160.13 504.871 159.145 505.07Z" fill="#B7CCB3"/>
<path d="M162.307 495.649C161.644 494.895 161.19 493.98 160.992 492.995C160.794 492.01 160.858 490.991 161.179 490.039C161.504 489.086 161.572 488.063 161.375 487.075C161.179 486.087 160.726 485.168 160.061 484.412C159.396 483.655 158.543 483.087 157.588 482.765C156.634 482.443 155.611 482.379 154.624 482.579C153.639 482.777 152.619 482.712 151.667 482.391C150.715 482.07 149.864 481.505 149.199 480.752C148.535 479.997 147.683 479.431 146.731 479.111C145.779 478.79 144.759 478.726 143.774 478.925C142.788 479.124 141.873 479.578 141.12 480.243C140.366 480.908 139.801 481.76 139.481 482.713C139.16 483.665 138.594 484.516 137.84 485.18C137.086 485.843 136.17 486.297 135.185 486.494C134.2 486.693 133.285 487.147 132.531 487.812C131.777 488.477 131.211 489.328 130.891 490.28C130.57 491.233 130.506 492.253 130.704 493.238C130.903 494.223 131.357 495.139 132.021 495.893C132.685 496.647 133.138 497.562 133.337 498.546C133.535 499.531 133.47 500.55 133.15 501.502C132.825 502.455 132.757 503.478 132.953 504.466C133.15 505.454 133.603 506.373 134.268 507.13C134.933 507.886 135.786 508.454 136.74 508.776C137.695 509.098 138.717 509.162 139.705 508.962C140.69 508.765 141.71 508.829 142.662 509.15C143.614 509.471 144.465 510.036 145.13 510.79C145.794 511.544 146.645 512.11 147.598 512.43C148.55 512.751 149.57 512.815 150.555 512.616C151.54 512.418 152.455 511.963 153.209 511.298C153.962 510.633 154.527 509.781 154.847 508.828C155.168 507.876 155.734 507.026 156.489 506.362C157.243 505.698 158.158 505.244 159.144 505.047C160.129 504.848 161.044 504.394 161.798 503.729C162.552 503.065 163.117 502.213 163.438 501.261C163.759 500.308 163.823 499.288 163.624 498.303C163.426 497.318 162.972 496.403 162.307 495.649ZM155.574 498.644C155.012 500.311 153.967 501.773 152.573 502.846C151.179 503.919 149.498 504.554 147.742 504.672C145.987 504.789 144.236 504.382 142.712 503.504C141.188 502.626 139.958 501.315 139.179 499.737C138.4 498.16 138.106 496.387 138.335 494.642C138.564 492.898 139.305 491.261 140.465 489.938C141.624 488.615 143.15 487.666 144.85 487.21C146.549 486.755 148.345 486.814 150.011 487.38C151.117 487.753 152.138 488.341 153.016 489.109C153.894 489.877 154.612 490.811 155.129 491.858C155.646 492.904 155.951 494.042 156.028 495.206C156.104 496.371 155.95 497.539 155.574 498.644Z" fill="#F74700"/>
<path d="M150.011 487.38C148.345 486.814 146.549 486.755 144.85 487.21C143.15 487.666 141.624 488.615 140.465 489.938C139.305 491.261 138.564 492.898 138.335 494.642C138.106 496.387 138.4 498.16 139.179 499.737C139.958 501.315 141.188 502.626 142.712 503.504C144.236 504.382 145.987 504.789 147.742 504.672C149.498 504.554 151.179 503.919 152.573 502.846C153.967 501.773 155.012 500.311 155.574 498.644C155.95 497.539 156.104 496.371 156.028 495.206C155.951 494.042 155.646 492.904 155.129 491.858C154.612 490.811 153.894 489.877 153.016 489.109C152.138 488.341 151.117 487.753 150.011 487.38ZM150.494 496.91C150.272 497.567 149.861 498.144 149.312 498.567C148.763 498.991 148.1 499.242 147.408 499.289C146.716 499.336 146.026 499.176 145.424 498.831C144.823 498.485 144.337 497.969 144.029 497.348C143.721 496.726 143.605 496.027 143.694 495.339C143.783 494.651 144.074 494.005 144.531 493.483C144.987 492.961 145.588 492.586 146.258 492.405C146.928 492.224 147.636 492.246 148.293 492.468C148.73 492.616 149.134 492.849 149.481 493.153C149.828 493.457 150.111 493.827 150.315 494.241C150.519 494.655 150.639 495.106 150.669 495.566C150.698 496.027 150.636 496.489 150.487 496.925L150.494 496.91Z" fill="#B7CCB3"/>
<path d="M148.293 492.468C147.636 492.246 146.928 492.224 146.258 492.405C145.588 492.586 144.987 492.961 144.531 493.483C144.075 494.005 143.783 494.651 143.694 495.339C143.605 496.027 143.722 496.726 144.03 497.348C144.338 497.969 144.823 498.485 145.424 498.831C146.026 499.176 146.716 499.336 147.408 499.289C148.1 499.242 148.763 498.991 149.312 498.568C149.861 498.144 150.273 497.567 150.494 496.91C150.791 496.029 150.726 495.066 150.313 494.233C149.9 493.401 149.174 492.766 148.293 492.468Z" fill="#F74700"/>
</g>
<defs>
<clipPath id="clip0">
<rect width="835" height="733" fill="white" transform="translate(0 35.5033) rotate(-2.43689)"/>
</clipPath>
</defs>
</svg>
